<svg id="Layer_1" data-name="Layer 1" xmlns="http://www.w3.org/2000/svg" viewBox="0 0 1078.91 250.62"><defs><style>.cls-1{fill:#fff;fill-rule:evenodd}</style></defs><g id="Calque_2" data-name="Calque 2"><g id="logos"><path class="cls-1" d="M83.48 0L95 20.14a13.49 13.49 0 0 1 0 13.41l-68.47 119.5 32.33 56.38a28.31 28.31 0 0 0 49.3 0l32.32-56.38-8.74-15.22-36.68 64a13.35 13.35 0 0 1-23.12 0L44 153.05l63.62-111 11.54 20.11a13.54 13.54 0 0 1 0 13.44L74.79 153l8.74 15.22 48.24-84.13 31.71 55.19a27.66 27.66 0 0 1 0 27.45l-32.23 56.09c-4.94 8.58-20.14 27.75-47.79 27.75s-42.74-19.17-47.69-27.75L3.64 166.79a27.77 27.77 0 0 1 0-27.48L83.48 0M339.35 96.55c-25.76.07-46.64 18.17-46.64 47.15s18 46.75 46.82 46.75c11.44 0 23.44 5.87 23.44 18.67s-10.3 20-23.44 20-24.15-7.94-24.15-20h-22.67c0 25.08 20 41.5 46.82 41.5s46.3-15.85 46.3-41.5c0-11.88-3.76-23-19.12-30.74 15.17-7 19.49-23.2 19.49-34.7 0-29-21-47.13-46.85-47.13zm.18 74.88c-13.29 0-24.15-11.5-24.15-27.73s10.86-28.15 24.15-28.15 24 12.07 24 28.11-10.86 27.71-24 27.71zm556.33-17.88c2.56 11 12.6 20.64 28.73 20.64 8.42 0 19.49-4.14 24.73-9.58l14.62 14.44c-9.74 10.14-25.66 15-39.72 15-28.84-.05-49.73-19.26-49.73-48.87 0-28.16 21.56-48.56 48.1-48.66 28-.12 51.17 19.21 48.66 57h-75.39zm53.7-17.55c-2.56-11-13.56-20.5-26.69-20.5a28.35 28.35 0 0 0-27 20.53zm-159.08 17.55c2.55 11 12.6 20.64 28.72 20.64 8.43 0 19.49-4.14 24.74-9.58l14.62 14.44c-9.75 10.14-25.67 15-39.73 15-28.82-.05-49.72-19.26-49.72-48.87 0-28.16 21.55-48.56 48.1-48.66 28-.12 51.16 19.21 48.65 57h-75.38zM844.17 136c-2.6-11-13.55-20.53-26.68-20.53a28.35 28.35 0 0 0-27 20.53zm-392-39.62c-10.44 0-20.51 3.19-28.7 13.88V57.8h-22.68v133.86h22.74v-47.28c0-13.87 9.31-25.33 22.74-25.33 12.11 0 20.88 7.13 20.88 24v48.56h22.72v-50.16c0-27.2-11.55-45-37.64-45zm261.3.12c-10.44 0-22.74 4.51-29.82 14.79l-.74-12.68h-22v134l22.74-2.47v-49.38c6.49 10.12 20.65 13.31 30.35 13.31 29.47 0 46.59-22.12 46.59-49.12 0-27.22-18.8-48.4-47.15-48.4zm-1.67 77.7c-15.45 0-26.08-14.32-26.08-28.74s9.67-30 26.08-30 26.1 15.55 26.1 30-10.62 28.77-26.1 28.77zm314.52 19.82c10.45 0 22.74-4.48 29.82-14.79l.77 12.35h22V58h-22.74v51.85c-6.49-10.12-20.88-13.15-30.56-13.15-29.44 0-46.4 22-46.4 49s18.82 48.38 47.15 48.38zm1.67-77.7c15.48 0 26.11 14.32 26.11 28.77s-9.7 30-26.11 30-26.08-15.52-26.08-30 10.63-28.74 26.09-28.74zm-482.78 59.6c-2.88 0-5-.91-6.38-2.75s-2.09-4.76-2.09-8.83v-45.72h18.33l2.09-19.89H537V73.21l-23 2.46v23.06h-17.33v19.89H514l.09 46.19q0 14.34 6.71 21.73t19.79 7.53a41.36 41.36 0 0 0 11.6-1.69 35.2 35.2 0 0 0 10.44-4.83l-7.82-14.63a18.75 18.75 0 0 1-9.58 3.05zm93.63-34.07c-9.24-5.76-20.19-6.53-30.77-7.19-6.22-.37-15.87-1.88-15.87-10 0-5.83 6-9.21 16.94-9.21 8.86 0 16.4 2.07 23 8.27l12.83-15c-10.75-9.38-21.68-12.17-36.2-12.17-16.94 0-39.19 7.51-39.19 28.88a25.75 25.75 0 0 0 12.22 21.77c8.63 5.4 19.63 6.15 29.36 7.16 6.49.68 17.14 2.35 15.43 11.39-1.23 6.36-8.73 8.17-14.23 8.41a58.27 58.27 0 0 1-17.35-1.6c-6-1.57-11-4.56-16.15-8l-11.51 14.84 1.39 1.15c14.94 12.28 35.59 16.34 54.3 12.09 14.06-3.19 26.24-13.52 26.24-28.95 0-8.69-2.95-17.17-10.44-21.84zM257 191.63h22.74V98.8H257v92.83zM255 69.1a13.44 13.44 0 1 1 4 9.54 13.56 13.56 0 0 1-3.91-9.5zm-16.68 122.67V57.87h-22.53v133.9z"/></g></g></svg>